<?xml version="1.0" encoding="UTF-8"?>
<svg width="1600" height="520" viewBox="0 0 1600 520" fill="none" xmlns="http://www.w3.org/2000/svg">
  <defs>
    <linearGradient id="sky" x1="800" y1="0" x2="800" y2="520" gradientUnits="userSpaceOnUse">
      <stop stop-color="#F7FBFF"/>
      <stop offset="0.48" stop-color="#EAF4FD"/>
      <stop offset="1" stop-color="#FFF4F0"/>
    </linearGradient>
    <linearGradient id="ground" x1="0" y1="430" x2="1600" y2="430" gradientUnits="userSpaceOnUse">
      <stop stop-color="#FFFDFB"/>
      <stop offset="0.48" stop-color="#F9ECE8"/>
      <stop offset="1" stop-color="#FFFDFB"/>
    </linearGradient>
    <linearGradient id="redTop" x1="0" y1="0" x2="1" y2="1">
      <stop stop-color="#F14A53"/>
      <stop offset="1" stop-color="#D91F2A"/>
    </linearGradient>
    <linearGradient id="blueTop" x1="0" y1="0" x2="1" y2="1">
      <stop stop-color="#4DA2E4"/>
      <stop offset="1" stop-color="#205D9D"/>
    </linearGradient>
    <filter id="softShadow" x="-20%" y="-20%" width="140%" height="160%">
      <feDropShadow dx="0" dy="12" stdDeviation="10" flood-color="#36516E" flood-opacity="0.16"/>
    </filter>
    <filter id="softBlur" x="-30%" y="-30%" width="160%" height="160%">
      <feGaussianBlur stdDeviation="8"/>
    </filter>
  </defs>

  <rect width="1600" height="520" fill="url(#sky)"/>

  <g opacity="0.72">
    <ellipse cx="120" cy="86" rx="82" ry="24" fill="white"/>
    <ellipse cx="210" cy="91" rx="50" ry="18" fill="white"/>
    <ellipse cx="1260" cy="96" rx="90" ry="25" fill="white"/>
    <ellipse cx="1363" cy="102" rx="56" ry="18" fill="white"/>
  </g>

  <g>
    <path d="M0 310L171 188L287 272L445 140L610 295L781 176L953 291L1119 181L1271 272L1424 190L1600 303V520H0V310Z" fill="#DCEAF4"/>
    <path d="M0 345L152 243L281 315L440 205L575 324L741 229L898 319L1051 241L1200 321L1372 247L1600 340V520H0V345Z" fill="#C8DCE8"/>
    <g fill="white" opacity="0.93">
      <path d="M136 215L171 188L211 216L193 220L176 237L157 220L143 226L136 215Z"/>
      <path d="M403 177L445 140L489 180L466 172L447 190L425 171L410 183L403 177Z"/>
      <path d="M744 203L781 176L823 205L803 208L783 225L762 207L750 215L744 203Z"/>
      <path d="M1084 210L1119 181L1162 211L1143 214L1121 232L1102 214L1090 221L1084 210Z"/>
      <path d="M1389 216L1424 190L1461 217L1444 219L1425 235L1408 220L1394 226L1389 216Z"/>
    </g>
  </g>

  <path d="M0 406C183 365 351 373 529 413C714 455 907 465 1092 419C1274 373 1442 374 1600 411V520H0V406Z" fill="#F6D9D0" opacity="0.82"/>
  <path d="M0 444C227 408 411 418 603 451C809 487 1072 486 1600 430V520H0V444Z" fill="url(#ground)"/>

  <g filter="url(#softBlur)" opacity="0.35">
    <ellipse cx="280" cy="438" rx="160" ry="24" fill="#DAB7AF"/>
    <ellipse cx="810" cy="438" rx="215" ry="24" fill="#DAB7AF"/>
    <ellipse cx="1335" cy="437" rx="180" ry="24" fill="#DAB7AF"/>
  </g>

  <!-- PERSON 1 -->
  <g transform="translate(95 198)" filter="url(#softShadow)">
    <ellipse cx="62" cy="258" rx="46" ry="8" fill="#7590A7" opacity="0.18"/>
    <path d="M30 79C16 84 8 100 8 123V201C8 216 18 226 33 226H50V93C44 82 39 78 30 79Z" fill="#193C67"/>
    <path d="M25 102C33 108 40 118 45 131" stroke="#D92D37" stroke-width="6" stroke-linecap="round"/>
    <circle cx="72" cy="36" r="25" fill="#D59B74"/>
    <path d="M48 34C50 13 91 6 100 31C90 24 82 24 73 27C65 23 56 25 48 34Z" fill="#15263D"/>
    <circle cx="82" cy="35" r="2.4" fill="#142236"/>
    <path d="M86 46C93 49 98 48 102 44" stroke="#8E5C42" stroke-width="2.6" stroke-linecap="round"/>
    <path d="M46 66C64 55 88 55 104 68C115 91 116 123 107 153H43C35 122 35 90 46 66Z" fill="url(#blueTop)"/>
    <path d="M48 91H99" stroke="#85C4F0" stroke-width="6" stroke-linecap="round" opacity="0.85"/>
    <path d="M45 90C30 106 27 131 31 153" stroke="#D59B74" stroke-width="11" stroke-linecap="round"/>
    <path d="M104 90C119 105 124 127 122 148" stroke="#D59B74" stroke-width="11" stroke-linecap="round"/>
    <path d="M57 149L41 230" stroke="#17355F" stroke-width="19" stroke-linecap="round"/>
    <path d="M91 149L110 223" stroke="#17355F" stroke-width="19" stroke-linecap="round"/>
    <path d="M24 239H64" stroke="#10253F" stroke-width="12" stroke-linecap="round"/>
    <path d="M99 230H134" stroke="#10253F" stroke-width="12" stroke-linecap="round"/>
  </g>

  <!-- PERSON 2 WOMAN -->
  <g transform="translate(290 186)" filter="url(#softShadow)">
    <ellipse cx="67" cy="268" rx="47" ry="8" fill="#7590A7" opacity="0.18"/>
    <path d="M29 91C14 96 7 113 7 137V210C7 225 17 235 31 235H49V100C43 93 37 90 29 91Z" fill="#244D79"/>
    <path d="M24 116C35 123 41 133 46 145" stroke="#D92D37" stroke-width="6" stroke-linecap="round"/>
    <path d="M47 28C33 33 24 51 27 75C38 88 53 92 70 88C62 74 63 51 79 37C71 28 59 25 47 28Z" fill="#18233A"/>
    <path d="M81 36C100 45 108 61 104 81C95 70 86 64 74 63L81 36Z" fill="#18233A"/>
    <circle cx="67" cy="49" r="24" fill="#EDC19B"/>
    <circle cx="76" cy="47" r="2.4" fill="#13243A"/>
    <path d="M80 57C87 60 94 59 99 55" stroke="#A56A50" stroke-width="2.6" stroke-linecap="round"/>
    <path d="M42 78C63 65 89 67 105 82C113 106 114 133 106 162H40C31 131 32 101 42 78Z" fill="#F8FAFC"/>
    <path d="M48 79C58 87 68 91 80 91C91 91 99 87 105 81" stroke="#D6E4EF" stroke-width="7" stroke-linecap="round"/>
    <path d="M52 70V95M92 71V95" stroke="#D6E4EF" stroke-width="5" stroke-linecap="round"/>
    <path d="M42 101C26 118 24 141 29 163" stroke="#EDC19B" stroke-width="11" stroke-linecap="round"/>
    <path d="M104 101C119 116 124 139 121 159" stroke="#EDC19B" stroke-width="11" stroke-linecap="round"/>
    <path d="M57 159L41 238" stroke="#244A78" stroke-width="18" stroke-linecap="round"/>
    <path d="M91 159L111 233" stroke="#244A78" stroke-width="18" stroke-linecap="round"/>
    <path d="M26 248H65" stroke="#10253F" stroke-width="12" stroke-linecap="round"/>
    <path d="M99 240H136" stroke="#10253F" stroke-width="12" stroke-linecap="round"/>
  </g>

  <!-- PERSON 3 ELDER -->
  <g transform="translate(500 190)" filter="url(#softShadow)">
    <ellipse cx="65" cy="264" rx="44" ry="8" fill="#7590A7" opacity="0.18"/>
    <circle cx="64" cy="48" r="24" fill="#EFC29C"/>
    <path d="M43 37C51 21 78 20 87 35C78 31 70 32 64 36C56 32 49 33 43 37Z" fill="#EEF2F5"/>
    <circle cx="56" cy="48" r="8.5" fill="none" stroke="#3B526C" stroke-width="2.6"/>
    <circle cx="75" cy="48" r="8.5" fill="none" stroke="#3B526C" stroke-width="2.6"/>
    <path d="M64 48H68" stroke="#3B526C" stroke-width="2.6"/>
    <path d="M47 61C57 70 75 70 84 60C81 77 52 80 47 61Z" fill="#EEF2F5"/>
    <path d="M38 85C55 74 79 74 95 87C105 110 106 137 98 166H35C27 139 28 108 38 85Z" fill="#173B68"/>
    <path d="M42 110C27 124 24 147 29 170" stroke="#EFC29C" stroke-width="11" stroke-linecap="round"/>
    <path d="M96 109C109 123 116 143 115 163" stroke="#EFC29C" stroke-width="11" stroke-linecap="round"/>
    <path d="M51 164L38 238" stroke="#B99B77" stroke-width="18" stroke-linecap="round"/>
    <path d="M82 164L97 237" stroke="#B99B77" stroke-width="18" stroke-linecap="round"/>
    <path d="M22 247H60" stroke="#10253F" stroke-width="12" stroke-linecap="round"/>
    <path d="M87 245H123" stroke="#10253F" stroke-width="12" stroke-linecap="round"/>
    <path d="M116 142V250" stroke="#8A684D" stroke-width="5" stroke-linecap="round"/>
    <path d="M111 250H123" stroke="#8A684D" stroke-width="5" stroke-linecap="round"/>
  </g>

  <!-- MEDIC -->
  <g transform="translate(690 176)" filter="url(#softShadow)">
    <ellipse cx="65" cy="279" rx="48" ry="8" fill="#7590A7" opacity="0.18"/>
    <path d="M29 93C15 99 8 116 8 140V215C8 231 18 241 33 241H50V102C44 96 37 92 29 93Z" fill="#193C67"/>
    <path d="M24 119C35 126 41 136 46 149" stroke="#E14A55" stroke-width="6" stroke-linecap="round"/>
    <circle cx="67" cy="48" r="25" fill="#D99A6F"/>
    <path d="M43 43C47 20 91 17 100 39C90 34 81 34 72 37C63 32 52 34 43 43Z" fill="#15263D"/>
    <circle cx="77" cy="46" r="2.4" fill="#13243A"/>
    <path d="M82 57C89 60 95 59 100 55" stroke="#8E5C42" stroke-width="2.6" stroke-linecap="round"/>
    <path d="M41 80C59 69 86 70 103 83C113 108 114 138 105 170H38C30 138 31 107 41 80Z" fill="url(#redTop)"/>
    <rect x="60" y="96" width="14" height="34" rx="3" fill="white"/>
    <rect x="50" y="106" width="34" height="14" rx="3" fill="white"/>
    <path d="M42 108C28 123 25 149 30 171" stroke="#D99A6F" stroke-width="11" stroke-linecap="round"/>
    <path d="M104 108C118 122 124 146 122 167" stroke="#D99A6F" stroke-width="11" stroke-linecap="round"/>
    <path d="M54 168L40 247" stroke="#17345A" stroke-width="19" stroke-linecap="round"/>
    <path d="M88 168L109 240" stroke="#17345A" stroke-width="19" stroke-linecap="round"/>
    <path d="M23 256H64" stroke="#10253F" stroke-width="12" stroke-linecap="round"/>
    <path d="M98 247H136" stroke="#10253F" stroke-width="12" stroke-linecap="round"/>
  </g>

  <!-- DOG -->
  <g transform="translate(895 290)" filter="url(#softShadow)">
    <ellipse cx="88" cy="139" rx="58" ry="8" fill="#7590A7" opacity="0.18"/>
    <ellipse cx="84" cy="83" rx="52" ry="34" fill="#D89B5F"/>
    <circle cx="143" cy="65" r="30" fill="#C98952"/>
    <path d="M121 43L107 14L138 33L121 43Z" fill="#9B633D"/>
    <path d="M153 42L179 18L172 53L153 42Z" fill="#9B633D"/>
    <circle cx="153" cy="62" r="3.4" fill="#11243A"/>
    <path d="M163 73C171 77 180 75 184 69" stroke="#11243A" stroke-width="3.4" stroke-linecap="round"/>
    <path d="M54 108V139M87 111V138M121 106V139" stroke="#9B633D" stroke-width="11" stroke-linecap="round"/>
    <path d="M34 82C8 69 11 45 19 36" stroke="#9B633D" stroke-width="10" stroke-linecap="round"/>
    <path d="M111 80H165" stroke="#D92D37" stroke-width="10" stroke-linecap="round"/>
    <rect x="129" y="75" width="30" height="26" rx="6" fill="#D92D37"/>
    <path d="M144 78V98M134 88H154" stroke="white" stroke-width="6" stroke-linecap="round"/>
  </g>

  <!-- TRAVELER -->
  <g transform="translate(1085 188)" filter="url(#softShadow)">
    <ellipse cx="65" cy="264" rx="47" ry="8" fill="#7590A7" opacity="0.18"/>
    <path d="M30 83C15 88 8 105 8 130V204C8 220 18 230 34 230H51V96C45 87 38 82 30 83Z" fill="#19385F"/>
    <path d="M24 108C35 114 42 126 47 139" stroke="#D92D37" stroke-width="6" stroke-linecap="round"/>
    <circle cx="66" cy="45" r="25" fill="#B87550"/>
    <path d="M42 40C47 17 88 15 98 36C88 31 80 31 70 35C63 31 52 32 42 40Z" fill="#15263D"/>
    <circle cx="76" cy="43" r="2.4" fill="#142236"/>
    <path d="M82 54C89 57 96 56 100 52" stroke="#7D4A34" stroke-width="2.6" stroke-linecap="round"/>
    <path d="M40 76C60 66 85 67 102 80C112 102 113 132 105 160H37C29 132 30 102 40 76Z" fill="#F3F6FA"/>
    <path d="M44 94H98" stroke="#C7D6E5" stroke-width="6" stroke-linecap="round"/>
    <path d="M41 103C27 118 24 143 29 164" stroke="#B87550" stroke-width="11" stroke-linecap="round"/>
    <path d="M103 103C118 118 124 140 121 160" stroke="#B87550" stroke-width="11" stroke-linecap="round"/>
    <path d="M53 157L39 235" stroke="#1D3E68" stroke-width="19" stroke-linecap="round"/>
    <path d="M88 157L108 231" stroke="#1D3E68" stroke-width="19" stroke-linecap="round"/>
    <path d="M23 244H63" stroke="#10253F" stroke-width="12" stroke-linecap="round"/>
    <path d="M98 238H135" stroke="#10253F" stroke-width="12" stroke-linecap="round"/>
  </g>

  <!-- PERSON 7 -->
  <g transform="translate(1284 200)" filter="url(#softShadow)">
    <ellipse cx="64" cy="258" rx="45" ry="8" fill="#7590A7" opacity="0.18"/>
    <circle cx="66" cy="38" r="24" fill="#C7845C"/>
    <path d="M42 34C47 12 89 10 99 31C89 26 80 26 71 29C63 25 52 27 42 34Z" fill="#15263D"/>
    <circle cx="76" cy="36" r="2.4" fill="#142236"/>
    <path d="M81 47C89 50 95 49 100 45" stroke="#7B4A33" stroke-width="2.6" stroke-linecap="round"/>
    <path d="M40 68C58 57 84 58 102 72C112 94 113 123 105 153H37C29 123 30 94 40 68Z" fill="url(#redTop)"/>
    <path d="M40 94C26 110 23 133 29 155" stroke="#C7845C" stroke-width="11" stroke-linecap="round"/>
    <path d="M103 94C118 109 124 132 121 152" stroke="#C7845C" stroke-width="11" stroke-linecap="round"/>
    <path d="M53 151L39 230" stroke="#143256" stroke-width="19" stroke-linecap="round"/>
    <path d="M87 151L107 224" stroke="#143256" stroke-width="19" stroke-linecap="round"/>
    <path d="M23 239H64" stroke="#10253F" stroke-width="12" stroke-linecap="round"/>
    <path d="M97 231H135" stroke="#10253F" stroke-width="12" stroke-linecap="round"/>
  </g>

  <!-- PERSON 8 -->
  <g transform="translate(1460 210)" filter="url(#softShadow)">
    <ellipse cx="58" cy="247" rx="40" ry="7" fill="#7590A7" opacity="0.18"/>
    <circle cx="58" cy="38" r="22" fill="#EFC29C"/>
    <path d="M37 34C42 15 77 12 87 30C79 26 70 26 63 29C56 25 47 27 37 34Z" fill="#15263D"/>
    <circle cx="66" cy="36" r="2.2" fill="#142236"/>
    <path d="M71 46C78 49 84 48 88 44" stroke="#8E5C42" stroke-width="2.5" stroke-linecap="round"/>
    <path d="M34 67C50 58 72 59 87 71C95 91 96 115 90 141H31C24 115 25 90 34 67Z" fill="url(#blueTop)"/>
    <path d="M34 91C22 105 20 126 24 145" stroke="#EFC29C" stroke-width="10" stroke-linecap="round"/>
    <path d="M88 92C101 105 106 124 104 143" stroke="#EFC29C" stroke-width="10" stroke-linecap="round"/>
    <path d="M44 139L31 214" stroke="#17355F" stroke-width="17" stroke-linecap="round"/>
    <path d="M73 139L91 209" stroke="#17355F" stroke-width="17" stroke-linecap="round"/>
    <path d="M16 224H52" stroke="#10253F" stroke-width="11" stroke-linecap="round"/>
    <path d="M80 216H114" stroke="#10253F" stroke-width="11" stroke-linecap="round"/>
  </g>
</svg>